<?xml version="1.0" encoding="UTF-8" standalone="no"?>
<!DOCTYPE svg PUBLIC "-//W3C//DTD SVG 1.1//EN" "http://www.w3.org/Graphics/SVG/1.1/DTD/svg11.dtd">
<svg xmlns="http://www.w3.org/2000/svg" version="1.1" viewBox="0.00 0.00 400.00 400.00">
<g stroke-width="2.00" fill="none" stroke-linecap="butt">
<path stroke="#DEDFE2" vector-effect="non-scaling-stroke" d="
  M 230.28 103.55
  A 2.07 2.07 0.0 0 0 227.67 104.32
  L 213.58 126.41
  A 2.07 2.07 0.0 0 0 214.46 129.41
  L 238.23 140.43
  A 2.07 2.07 0.0 0 0 240.84 139.66
  L 254.93 117.57
  A 2.07 2.07 0.0 0 0 254.05 114.57
  L 230.28 103.55
"/>
<path stroke="#DEDFE2" vector-effect="non-scaling-stroke" d="
  M 156.04 283.52
  Q 171.62 283.90 185.95 282.42
  C 188.61 282.15 190.88 281.30 193.05 281.07
  Q 199.83 280.34 204.12 279.31
  C 233.31 272.31 262.43 260.37 283.70 238.71
  C 292.12 230.14 300.03 218.84 303.28 207.06
  C 306.66 194.80 306.69 180.81 301.83 169.46
  Q 296.00 155.83 281.86 148.85
  C 269.59 142.80 252.83 144.18 240.16 148.46
  C 222.13 154.56 206.14 165.15 191.41 177.92
  Q 161.55 203.82 140.30 237.56
  Q 139.82 238.32 138.95 239.07
  A 0.47 0.47 0.0 0 0 139.15 239.88
  L 147.60 241.80
  A 0.88 0.87 -61.6 0 0 148.41 241.55
  Q 173.80 214.61 206.87 195.90
  Q 220.29 188.30 236.38 184.16
  Q 245.69 181.77 257.44 182.83
  C 262.45 183.28 266.27 184.77 270.01 187.15
  Q 278.03 192.28 279.20 202.65
  A 1.46 1.46 0.0 0 1 278.86 203.76
  Q 276.01 207.05 272.33 210.08
  Q 259.04 221.01 242.79 228.76
  Q 226.75 236.41 212.29 240.50
  Q 205.05 242.55 202.82 243.31
  C 200.78 244.00 197.62 244.49 194.95 245.25
  Q 188.54 247.09 181.00 247.53
  C 179.26 247.63 177.02 248.50 175.01 248.74
  Q 164.27 250.03 156.21 250.12
  A 0.38 0.38 0.0 0 0 155.83 250.50
  L 155.83 283.30
  A 0.22 0.22 0.0 0 0 156.04 283.52
"/>
<path stroke="#DEDFE2" vector-effect="non-scaling-stroke" d="
  M 114.62 252.16
  A 0.91 0.90 0.0 0 0 115.53 251.26
  L 115.53 224.76
  A 1.31 1.31 0.0 0 0 114.22 223.45
  L 92.16 223.45
  A 1.35 1.35 0.0 0 0 90.81 224.80
  L 90.81 249.82
  A 2.35 2.35 0.0 0 0 93.16 252.17
  L 114.62 252.16
"/>
<path stroke="#47b243" vector-effect="non-scaling-stroke" d="
  M 149.04 282.49
  A 0.33 0.33 0.0 0 0 149.44 282.17
  L 149.44 249.94
  A 0.33 0.33 0.0 0 0 149.18 249.62
  L 123.76 243.86
  A 0.33 0.33 0.0 0 0 123.36 244.18
  L 123.36 276.41
  A 0.33 0.33 0.0 0 0 123.62 276.73
  L 149.04 282.49
"/>
<path stroke="#34b6e2" vector-effect="non-scaling-stroke" d="
  M 117.0263 260.7881
  A 0.49 0.49 0.0 0 0 116.5380 260.2964
  L 101.4381 260.2437
  A 0.49 0.49 0.0 0 0 100.9464 260.7320
  L 100.8937 275.8319
  A 0.49 0.49 0.0 0 0 101.3820 276.3236
  L 116.4819 276.3763
  A 0.49 0.49 0.0 0 0 116.9736 275.8880
  L 117.0263 260.7881
"/>
</g>

<path fill="#DEDFE2" d="
  M 230.28 103.55
  L 254.05 114.57
  A 2.07 2.07 0.0 0 1 254.93 117.57
  L 240.84 139.66
  A 2.07 2.07 0.0 0 1 238.23 140.43
  L 214.46 129.41
  A 2.07 2.07 0.0 0 1 213.58 126.41
  L 227.67 104.32
  A 2.07 2.07 0.0 0 1 230.28 103.55
  Z
"/>
<path fill="#DEDFE2" d="
  M 156.04 283.52
  A 0.22 0.22 0.0 0 1 155.83 283.30
  L 155.83 250.50
  A 0.38 0.38 0.0 0 1 156.21 250.12
  Q 164.27 250.03 175.01 248.74
  C 177.02 248.50 179.26 247.63 181.00 247.53
  Q 188.54 247.09 194.95 245.25
  C 197.62 244.49 200.78 244.00 202.82 243.31
  Q 205.05 242.55 212.29 240.50
  Q 226.75 236.41 242.79 228.76
  Q 259.04 221.01 272.33 210.08
  Q 276.01 207.05 278.86 203.76
  A 1.46 1.46 0.0 0 0 279.20 202.65
  Q 278.03 192.28 270.01 187.15
  C 266.27 184.77 262.45 183.28 257.44 182.83
  Q 245.69 181.77 236.38 184.16
  Q 220.29 188.30 206.87 195.90
  Q 173.80 214.61 148.41 241.55
  A 0.88 0.87 -61.6 0 1 147.60 241.80
  L 139.15 239.88
  A 0.47 0.47 0.0 0 1 138.95 239.07
  Q 139.82 238.32 140.30 237.56
  Q 161.55 203.82 191.41 177.92
  C 206.14 165.15 222.13 154.56 240.16 148.46
  C 252.83 144.18 269.59 142.80 281.86 148.85
  Q 296.00 155.83 301.83 169.46
  C 306.69 180.81 306.66 194.80 303.28 207.06
  C 300.03 218.84 292.12 230.14 283.70 238.71
  C 262.43 260.37 233.31 272.31 204.12 279.31
  Q 199.83 280.34 193.05 281.07
  C 190.88 281.30 188.61 282.15 185.95 282.42
  Q 171.62 283.90 156.04 283.52
  Z
"/>
<path fill="#DEDFE2" d="
  M 114.62 252.16
  L 93.16 252.17
  A 2.35 2.35 0.0 0 1 90.81 249.82
  L 90.81 224.80
  A 1.35 1.35 0.0 0 1 92.16 223.45
  L 114.22 223.45
  A 1.31 1.31 0.0 0 1 115.53 224.76
  L 115.53 251.26
  A 0.91 0.90 -0.0 0 1 114.62 252.16
  Z
"/>
<path fill="#47b243" d="
  M 149.04 282.49
  L 123.62 276.73
  A 0.33 0.33 0.0 0 1 123.36 276.41
  L 123.36 244.18
  A 0.33 0.33 0.0 0 1 123.76 243.86
  L 149.18 249.62
  A 0.33 0.33 0.0 0 1 149.44 249.94
  L 149.44 282.17
  A 0.33 0.33 0.0 0 1 149.04 282.49
  Z
"/>
<rect fill="#34b6e2" x="-8.04" y="-8.04" transform="translate(108.96,268.31) rotate(0.2)" width="16.08" height="16.08" rx="0.49"/>
</svg>
